<svg width="16" height="16" viewBox="0 0 16 16" fill="none" xmlns="http://www.w3.org/2000/svg">
<path d="M9.40747 6.34875C9.5692 6.33354 9.71705 6.44565 9.76001 6.59583L9.77954 6.66614L9.77368 6.66907C9.774 6.67066 9.77432 6.67229 9.77466 6.67395C9.78289 6.71475 9.79425 6.7727 9.80591 6.84387C9.82919 6.98614 9.85442 7.18387 9.86157 7.41711C9.87583 7.88305 9.81888 8.49615 9.52954 9.09875L9.52856 9.10071C9.20059 9.75576 8.5634 10.493 8.32544 10.7531C8.33329 10.8848 8.34387 10.9927 8.35278 11.0695C8.35764 11.1112 8.36138 11.1442 8.3645 11.1661C8.36607 11.1771 8.36756 11.1861 8.36841 11.1915C8.36857 11.1926 8.36828 11.1936 8.36841 11.1945C8.4136 11.384 8.27373 11.5628 8.09204 11.5861L8.07935 11.588V11.587H8.03149C7.88386 11.587 7.72639 11.4853 7.69556 11.3224C7.69216 11.3125 7.68832 11.3036 7.68677 11.297C7.68372 11.2839 7.68089 11.2675 7.67798 11.2501C7.67215 11.2153 7.66647 11.1692 7.6604 11.1144C7.64858 11.0076 7.63636 10.8637 7.62817 10.6935C7.62172 10.6778 7.61159 10.6554 7.59595 10.6241C7.58106 10.5944 7.56394 10.5586 7.5481 10.5216C7.29637 10.2766 6.91327 9.86362 6.61255 9.35852C6.30706 8.84525 6.07936 8.22515 6.17212 7.58508C6.17815 7.44826 6.26666 7.34613 6.37915 7.30676L6.43091 7.29309C6.97642 7.15866 7.38933 7.30935 7.65356 7.47766C7.99802 6.9844 8.40509 6.70292 8.74048 6.54504C8.91712 6.46192 9.07359 6.41229 9.1897 6.38391C9.28667 6.36023 9.35989 6.35215 9.3938 6.34973V6.34875C9.39637 6.3484 9.39904 6.34905 9.40161 6.34875C9.40383 6.34866 9.4058 6.34778 9.40747 6.34778V6.34875ZM9.13794 7.12317C8.97835 7.18263 8.77769 7.28552 8.57251 7.45813C8.68548 7.39547 8.82671 7.40723 8.93774 7.48645C9.09927 7.60195 9.11759 7.81015 9.00903 7.96204V7.96301C8.62957 8.48184 8.44519 9.07563 8.35571 9.61047C8.56107 9.34461 8.76617 9.04444 8.90259 8.77161C9.20829 8.1597 9.19912 7.49444 9.13794 7.12317ZM8.46997 7.54797C8.30748 7.70395 8.14682 7.90752 8.00806 8.17395C7.91373 8.37116 7.8614 8.57608 7.84106 8.7804C7.9752 8.36687 8.17218 7.94514 8.46216 7.55774C8.4646 7.55433 8.46745 7.55126 8.46997 7.54797ZM6.82251 7.93567C6.82584 8.03689 6.83686 8.13841 6.85864 8.23938C6.88052 8.17824 6.92081 8.12178 6.98169 8.07825L6.99048 8.07239C7.06083 8.03226 7.14344 8.01578 7.2229 8.02551C7.12139 7.97452 6.98865 7.93567 6.82251 7.93567Z" fill="#213F7D" stroke="#213F7D" stroke-width="0.2"/>
<path d="M4.80029 5.42035C4.98355 5.42048 5.14014 5.57692 5.14014 5.76019V11.8403C5.13996 12.0234 4.98344 12.18 4.80029 12.1801C4.61704 12.1801 4.46063 12.0235 4.46045 11.8403V5.76019C4.46045 5.57684 4.61694 5.42035 4.80029 5.42035Z" fill="#213F7D" stroke="#213F7D" stroke-width="0.2"/>
<path d="M3.2002 5.42035C3.38345 5.42048 3.54004 5.57692 3.54004 5.76019V11.8403C3.53986 12.0234 3.38334 12.18 3.2002 12.1801C3.01695 12.1801 2.86053 12.0235 2.86035 11.8403V5.76019C2.86035 5.57684 3.01684 5.42035 3.2002 5.42035Z" fill="#213F7D" stroke="#213F7D" stroke-width="0.2"/>
<path d="M11.2002 5.42035C11.3834 5.42048 11.54 5.57692 11.54 5.76019V11.8403C11.5399 12.0234 11.3833 12.18 11.2002 12.1801C11.0169 12.1801 10.8605 12.0235 10.8604 11.8403V5.76019C10.8604 5.57684 11.0168 5.42035 11.2002 5.42035Z" fill="#213F7D" stroke="#213F7D" stroke-width="0.2"/>
<path d="M12.8003 5.42035C12.9835 5.42048 13.1401 5.57692 13.1401 5.76019V11.8403C13.14 12.0234 12.9834 12.18 12.8003 12.1801C12.617 12.1801 12.4606 12.0235 12.4604 11.8403V5.76019C12.4604 5.57684 12.6169 5.42035 12.8003 5.42035Z" fill="#213F7D" stroke="#213F7D" stroke-width="0.2"/>
<path d="M7.83618 1.46594C7.94323 1.40155 8.08406 1.39512 8.18677 1.4718L13.5208 4.64856C13.6353 4.70074 13.716 4.83048 13.7161 4.95911V4.9718L13.7141 4.97083C13.7005 5.08283 13.6324 5.18724 13.5354 5.24719L13.5823 5.29993H2.63989C2.48447 5.29986 2.34211 5.18962 2.31763 5.04016L2.3186 5.03918C2.27903 4.88182 2.35227 4.74951 2.4729 4.66907L2.47681 4.66614L7.83618 1.46692V1.46594ZM3.86548 4.62024H12.1194L7.99927 2.14758L3.86548 4.62024Z" fill="#213F7D" stroke="#213F7D" stroke-width="0.2"/>
<path d="M13.3601 12.3004C13.5435 12.3004 13.7 12.4568 13.7 12.6402C13.6998 12.8235 13.5434 12.98 13.3601 12.98H2.64038C2.45711 12.98 2.30067 12.8235 2.30054 12.6402C2.30054 12.4568 2.45703 12.3004 2.64038 12.3004H13.3601Z" fill="#213F7D" stroke="#213F7D" stroke-width="0.2"/>
<path d="M14.1597 13.1003C14.343 13.1003 14.5005 13.2568 14.5005 13.4402C14.5004 13.6234 14.3429 13.78 14.1597 13.78H1.84033C1.65706 13.78 1.50062 13.6234 1.50049 13.4402C1.50049 13.2568 1.65698 13.1003 1.84033 13.1003H14.1597Z" fill="#213F7D" stroke="#213F7D" stroke-width="0.2"/>
<path d="M14.9602 13.9003C15.1435 13.9004 15.3 14.0569 15.3 14.2402C15.2999 14.4234 15.1434 14.5799 14.9602 14.58H1.04028C0.857008 14.58 0.700573 14.4234 0.700439 14.2402C0.700439 14.0568 0.85693 13.9003 1.04028 13.9003H14.9602Z" fill="#213F7D" stroke="#213F7D" stroke-width="0.2"/>
</svg>
