<svg width="15" height="14" viewBox="0 0 15 14" fill="none" xmlns="http://www.w3.org/2000/svg">
<path fill-rule="evenodd" clip-rule="evenodd" d="M7.02575 0.000250924C6.892 0.00587588 6.77575 0.0940014 6.73451 0.221499L5.22763 4.8927L0.320747 4.8827C0.181997 4.8827 0.0582509 4.97207 0.0157549 5.10395C-0.0273699 5.23645 0.02013 5.38083 0.13263 5.4627L4.10895 8.3395L2.58207 13.0057C2.53895 13.1376 2.58582 13.2826 2.69832 13.3639C2.81019 13.4457 2.96269 13.4457 3.07458 13.3639L7.03954 10.4707L11.0058 13.3639C11.1177 13.4457 11.2701 13.4457 11.382 13.3639C11.4945 13.2826 11.5414 13.1376 11.4983 13.0057L9.9714 8.3395L13.9477 5.4627C14.0602 5.38082 14.1077 5.23644 14.0646 5.10395C14.0215 4.97207 13.8983 4.8827 13.7596 4.88332L8.85272 4.89332L7.34397 0.222123V0.221498C7.2996 0.0846228 7.1696 -0.00538199 7.02584 0.000250008L7.02575 0.000250924Z" fill="#E9B200"/>
</svg>
